<svg width="246" height="44" viewBox="0 0 246 44" fill="none" xmlns="http://www.w3.org/2000/svg">
<rect width="246" height="44" fill="white"/>
<path d="M1.65057 13H0.357955L4.09659 2.81818H5.36932L9.10795 13H7.81534L4.77273 4.42898H4.69318L1.65057 13ZM2.12784 9.02273H7.33807V10.1165H2.12784V9.02273ZM13.4393 13.1591C12.803 13.1591 12.2412 12.9983 11.754 12.6768C11.2667 12.352 10.8856 11.8946 10.6105 11.3047C10.3354 10.7114 10.1978 10.0104 10.1978 9.2017C10.1978 8.39962 10.3354 7.7036 10.6105 7.11364C10.8856 6.52367 11.2684 6.06794 11.7589 5.74645C12.2495 5.42495 12.8162 5.2642 13.4592 5.2642C13.9564 5.2642 14.3491 5.34706 14.6375 5.51278C14.9291 5.67519 15.1512 5.8608 15.3037 6.0696C15.4594 6.27509 15.5804 6.44413 15.6666 6.5767H15.766V2.81818H16.9393V13H15.8058V11.8267H15.6666C15.5804 11.9659 15.4578 12.1416 15.2987 12.3537C15.1396 12.5625 14.9126 12.7498 14.6176 12.9155C14.3226 13.0779 13.9299 13.1591 13.4393 13.1591ZM13.5984 12.1051C14.0691 12.1051 14.4668 11.9825 14.7916 11.7372C15.1164 11.4886 15.3633 11.1456 15.5324 10.7081C15.7014 10.2673 15.7859 9.75852 15.7859 9.18182C15.7859 8.61174 15.7031 8.11293 15.5373 7.68537C15.3716 7.2545 15.1264 6.91974 14.8015 6.68111C14.4767 6.43916 14.0757 6.31818 13.5984 6.31818C13.1013 6.31818 12.687 6.44579 12.3555 6.70099C12.0274 6.95289 11.7805 7.29593 11.6147 7.73011C11.4523 8.16098 11.3711 8.64489 11.3711 9.18182C11.3711 9.72538 11.454 10.2192 11.6197 10.6634C11.7888 11.1042 12.0373 11.4555 12.3655 11.7173C12.6969 11.9759 13.1079 12.1051 13.5984 12.1051ZM21.5193 13.179C21.0354 13.179 20.5962 13.0878 20.2018 12.9055C19.8074 12.7199 19.4942 12.4531 19.2622 12.1051C19.0302 11.7538 18.9142 11.3295 18.9142 10.8324C18.9142 10.3949 19.0003 10.0402 19.1727 9.76847C19.345 9.49337 19.5754 9.27794 19.8637 9.12216C20.1521 8.96638 20.4703 8.85038 20.8183 8.77415C21.1696 8.6946 21.5226 8.63163 21.8772 8.58523C22.3412 8.52557 22.7174 8.48082 23.0058 8.45099C23.2974 8.41785 23.5096 8.36316 23.6421 8.28693C23.778 8.2107 23.846 8.07812 23.846 7.8892V7.84943C23.846 7.3589 23.7117 6.97775 23.4433 6.70597C23.1781 6.43419 22.7754 6.2983 22.2352 6.2983C21.675 6.2983 21.2359 6.42093 20.9177 6.66619C20.5995 6.91146 20.3758 7.1733 20.2465 7.4517L19.1329 7.05398C19.3318 6.58996 19.5969 6.22869 19.9284 5.97017C20.2631 5.70833 20.6277 5.52604 21.0221 5.4233C21.4198 5.31723 21.8109 5.2642 22.1954 5.2642C22.4407 5.2642 22.7224 5.29403 23.0406 5.35369C23.3621 5.41004 23.672 5.5277 23.9703 5.70668C24.2719 5.88565 24.5221 6.15578 24.721 6.51705C24.9198 6.87831 25.0193 7.36222 25.0193 7.96875V13H23.846V11.9659H23.7863C23.7068 12.1316 23.5742 12.3089 23.3886 12.4979C23.203 12.6868 22.9561 12.8475 22.6478 12.9801C22.3396 13.1127 21.9634 13.179 21.5193 13.179ZM21.6982 12.125C22.1623 12.125 22.5534 12.0339 22.8715 11.8516C23.193 11.6693 23.435 11.4339 23.5974 11.1456C23.7631 10.8572 23.846 10.554 23.846 10.2358V9.16193C23.7963 9.22159 23.6869 9.27628 23.5179 9.32599C23.3521 9.3724 23.1599 9.41383 22.9411 9.45028C22.7257 9.48343 22.5152 9.51326 22.3098 9.53977C22.1076 9.56297 21.9435 9.58286 21.8176 9.59943C21.5126 9.6392 21.2276 9.70384 20.9625 9.79332C20.7006 9.8795 20.4885 10.0104 20.3261 10.1861C20.167 10.3584 20.0875 10.5937 20.0875 10.892C20.0875 11.2997 20.2383 11.608 20.5399 11.8168C20.8448 12.0223 21.2309 12.125 21.6982 12.125ZM27.1818 13V5.36364H28.3153V6.55682H28.4147C28.5738 6.14915 28.8307 5.83262 29.1853 5.60724C29.54 5.37855 29.9659 5.2642 30.463 5.2642C30.9668 5.2642 31.3861 5.37855 31.7208 5.60724C32.0589 5.83262 32.3224 6.14915 32.5113 6.55682H32.5909C32.7864 6.16241 33.0797 5.84919 33.4708 5.61719C33.8619 5.38187 34.3309 5.2642 34.8778 5.2642C35.5606 5.2642 36.119 5.47798 36.5532 5.90554C36.9874 6.32978 37.2045 6.991 37.2045 7.8892V13H36.0312V7.8892C36.0312 7.32576 35.8771 6.92306 35.5689 6.68111C35.2606 6.43916 34.8977 6.31818 34.4801 6.31818C33.9431 6.31818 33.5272 6.48059 33.2322 6.8054C32.9372 7.12689 32.7897 7.53456 32.7897 8.02841V13H31.5966V7.76989C31.5966 7.3357 31.4557 6.98603 31.174 6.72088C30.8922 6.45241 30.5293 6.31818 30.0852 6.31818C29.7803 6.31818 29.4952 6.39938 29.2301 6.56179C28.9682 6.72419 28.7561 6.94957 28.5937 7.23793C28.4346 7.52296 28.3551 7.85275 28.3551 8.22727V13H27.1818ZM49.0565 5.36364C48.9969 4.85985 48.7549 4.46875 48.3307 4.19034C47.9064 3.91193 47.3861 3.77273 46.7696 3.77273C46.3188 3.77273 45.9244 3.84564 45.5864 3.99148C45.2516 4.13731 44.9898 4.33783 44.8008 4.59304C44.6152 4.84825 44.5224 5.13826 44.5224 5.46307C44.5224 5.73485 44.5871 5.96851 44.7163 6.16406C44.8489 6.3563 45.0179 6.51705 45.2234 6.64631C45.4289 6.77225 45.6444 6.87666 45.8697 6.95952C46.0951 7.03906 46.3023 7.10369 46.4912 7.15341L47.5253 7.43182C47.7904 7.50142 48.0854 7.59754 48.4102 7.72017C48.7383 7.8428 49.0516 8.01018 49.3499 8.2223C49.6515 8.43111 49.9 8.69957 50.0956 9.0277C50.2911 9.35582 50.3889 9.75852 50.3889 10.2358C50.3889 10.786 50.2447 11.2831 49.9564 11.7273C49.6713 12.1714 49.2537 12.5244 48.7035 12.7862C48.1567 13.0481 47.4921 13.179 46.7099 13.179C45.9808 13.179 45.3494 13.0613 44.8158 12.826C44.2855 12.5907 43.8678 12.2625 43.5629 11.8416C43.2613 11.4207 43.0906 10.9318 43.0508 10.375H44.3236C44.3567 10.7595 44.486 11.0777 44.7114 11.3295C44.94 11.5781 45.2284 11.7637 45.5764 11.8864C45.9277 12.0057 46.3056 12.0653 46.7099 12.0653C47.1806 12.0653 47.6032 11.9891 47.9777 11.8366C48.3522 11.6809 48.6489 11.4654 48.8676 11.1903C49.0864 10.9119 49.1957 10.5871 49.1957 10.2159C49.1957 9.87784 49.1013 9.60275 48.9124 9.39062C48.7234 9.1785 48.4749 9.00616 48.1666 8.87358C47.8584 8.741 47.5253 8.625 47.1673 8.52557L45.9145 8.16761C45.119 7.93892 44.4893 7.61245 44.0253 7.18821C43.5613 6.76397 43.3293 6.20881 43.3293 5.52273C43.3293 4.95265 43.4834 4.45549 43.7916 4.03125C44.1032 3.60369 44.5208 3.27225 45.0445 3.03693C45.5714 2.7983 46.1597 2.67898 46.8094 2.67898C47.4656 2.67898 48.049 2.79664 48.5594 3.03196C49.0698 3.26397 49.4741 3.58215 49.7724 3.98651C50.074 4.39086 50.2331 4.8499 50.2497 5.36364H49.0565ZM52.278 13V5.36364H53.4115V6.55682H53.5109C53.67 6.14915 53.9269 5.83262 54.2815 5.60724C54.6362 5.37855 55.0621 5.2642 55.5592 5.2642C56.063 5.2642 56.4823 5.37855 56.8171 5.60724C57.1551 5.83262 57.4186 6.14915 57.6075 6.55682H57.6871C57.8826 6.16241 58.176 5.84919 58.5671 5.61719C58.9581 5.38187 59.4271 5.2642 59.974 5.2642C60.6568 5.2642 61.2153 5.47798 61.6494 5.90554C62.0836 6.32978 62.3007 6.991 62.3007 7.8892V13H61.1274V7.8892C61.1274 7.32576 60.9733 6.92306 60.6651 6.68111C60.3568 6.43916 59.9939 6.31818 59.5763 6.31818C59.0394 6.31818 58.6234 6.48059 58.3284 6.8054C58.0334 7.12689 57.8859 7.53456 57.8859 8.02841V13H56.6928V7.76989C56.6928 7.3357 56.5519 6.98603 56.2702 6.72088C55.9885 6.45241 55.6255 6.31818 55.1814 6.31818C54.8765 6.31818 54.5914 6.39938 54.3263 6.56179C54.0644 6.72419 53.8523 6.94957 53.6899 7.23793C53.5308 7.52296 53.4513 7.85275 53.4513 8.22727V13H52.278ZM64.467 13V5.36364H65.6403V13H64.467ZM65.0635 4.09091C64.8349 4.09091 64.6376 4.01302 64.4719 3.85724C64.3095 3.70147 64.2283 3.5142 64.2283 3.29545C64.2283 3.0767 64.3095 2.88944 64.4719 2.73366C64.6376 2.57789 64.8349 2.5 65.0635 2.5C65.2922 2.5 65.4878 2.57789 65.6502 2.73366C65.8159 2.88944 65.8988 3.0767 65.8988 3.29545C65.8988 3.5142 65.8159 3.70147 65.6502 3.85724C65.4878 4.01302 65.2922 4.09091 65.0635 4.09091ZM71.1312 5.36364V6.35795H67.1739V5.36364H71.1312ZM68.3273 3.53409H69.5006V10.8125C69.5006 11.1439 69.5486 11.3925 69.6447 11.5582C69.7442 11.7206 69.8701 11.83 70.0226 11.8864C70.1784 11.9394 70.3424 11.9659 70.5148 11.9659C70.644 11.9659 70.7501 11.9593 70.8329 11.946C70.9158 11.9295 70.9821 11.9162 71.0318 11.9062L71.2704 12.9602C71.1909 12.9901 71.0799 13.0199 70.9374 13.0497C70.7948 13.0829 70.6142 13.0994 70.3954 13.0994C70.064 13.0994 69.7392 13.0282 69.421 12.8857C69.1062 12.7431 68.8443 12.526 68.6355 12.2344C68.43 11.9427 68.3273 11.5748 68.3273 11.1307V3.53409ZM74.2545 8.40625V13H73.0812V2.81818H74.2545V6.55682H74.354C74.5329 6.16241 74.8014 5.84919 75.1594 5.61719C75.5206 5.38187 76.0012 5.2642 76.6011 5.2642C77.1215 5.2642 77.5772 5.36861 77.9683 5.57741C78.3594 5.78291 78.6627 6.09943 78.8781 6.52699C79.0969 6.95123 79.2062 7.49148 79.2062 8.14773V13H78.0329V8.22727C78.0329 7.62074 77.8755 7.15175 77.5606 6.82031C77.2491 6.48556 76.8165 6.31818 76.263 6.31818C75.8786 6.31818 75.5339 6.39938 75.229 6.56179C74.9273 6.72419 74.6887 6.96117 74.513 7.27273C74.3407 7.58428 74.2545 7.96212 74.2545 8.40625Z" fill="black" fill-opacity="0.6"/>
<path d="M0.772727 27.6136V26.3636H9.5V27.6136H5.84091V38H4.43182V27.6136H0.772727ZM12.8578 32.75V38H11.5169V26.3636H12.8578V30.6364H12.9714C13.176 30.1856 13.4828 29.8277 13.8919 29.5625C14.3048 29.2936 14.854 29.1591 15.5396 29.1591C16.1343 29.1591 16.6552 29.2784 17.1021 29.517C17.5491 29.7519 17.8957 30.1136 18.1419 30.6023C18.3919 31.0871 18.5169 31.7045 18.5169 32.4545V38H17.176V32.5455C17.176 31.8523 16.9961 31.3163 16.6362 30.9375C16.2802 30.5549 15.7858 30.3636 15.1533 30.3636C14.7139 30.3636 14.3199 30.4564 13.9714 30.642C13.6267 30.8277 13.354 31.0985 13.1533 31.4545C12.9563 31.8106 12.8578 32.2424 12.8578 32.75ZM24.6531 38.1818C23.8122 38.1818 23.0868 37.9962 22.477 37.625C21.8709 37.25 21.4031 36.7273 21.0736 36.0568C20.7478 35.3826 20.5849 34.5985 20.5849 33.7045C20.5849 32.8106 20.7478 32.0227 21.0736 31.3409C21.4031 30.6553 21.8614 30.1212 22.4486 29.7386C23.0395 29.3523 23.7289 29.1591 24.5168 29.1591C24.9713 29.1591 25.4202 29.2348 25.8633 29.3864C26.3065 29.5379 26.7099 29.7841 27.0736 30.125C27.4372 30.4621 27.727 30.9091 27.9429 31.4659C28.1588 32.0227 28.2668 32.7083 28.2668 33.5227V34.0909H21.5395V32.9318H26.9031C26.9031 32.4394 26.8046 32 26.6077 31.6136C26.4145 31.2273 26.138 30.9223 25.7781 30.6989C25.4221 30.4754 25.0016 30.3636 24.5168 30.3636C23.9827 30.3636 23.5205 30.4962 23.1304 30.7614C22.744 31.0227 22.4467 31.3636 22.2383 31.7841C22.03 32.2045 21.9258 32.6553 21.9258 33.1364V33.9091C21.9258 34.5682 22.0395 35.1269 22.2668 35.5852C22.4978 36.0398 22.8179 36.3864 23.227 36.625C23.6361 36.8598 24.1114 36.9773 24.6531 36.9773C25.0054 36.9773 25.3236 36.928 25.6077 36.8295C25.8955 36.7273 26.1436 36.5758 26.352 36.375C26.5603 36.1705 26.7213 35.9167 26.8349 35.6136L28.1304 35.9773C27.994 36.4167 27.7649 36.803 27.4429 37.1364C27.1209 37.4659 26.7232 37.7235 26.2497 37.9091C25.7762 38.0909 25.244 38.1818 24.6531 38.1818ZM37.15 38L33.9682 26.3636H35.4L37.8318 35.8409H37.9454L40.4227 26.3636H42.0136L44.4909 35.8409H44.6045L47.0363 26.3636H48.4682L45.2863 38H43.8318L41.2636 28.7273H41.1727L38.6045 38H37.15ZM52.9126 38.1818C52.0717 38.1818 51.3463 37.9962 50.7365 37.625C50.1304 37.25 49.6626 36.7273 49.3331 36.0568C49.0073 35.3826 48.8444 34.5985 48.8444 33.7045C48.8444 32.8106 49.0073 32.0227 49.3331 31.3409C49.6626 30.6553 50.1209 30.1212 50.7081 29.7386C51.299 29.3523 51.9884 29.1591 52.7762 29.1591C53.2308 29.1591 53.6797 29.2348 54.1228 29.3864C54.566 29.5379 54.9694 29.7841 55.3331 30.125C55.6967 30.4621 55.9865 30.9091 56.2024 31.4659C56.4183 32.0227 56.5262 32.7083 56.5262 33.5227V34.0909H49.799V32.9318H55.1626C55.1626 32.4394 55.0641 32 54.8672 31.6136C54.674 31.2273 54.3975 30.9223 54.0376 30.6989C53.6816 30.4754 53.2611 30.3636 52.7762 30.3636C52.2422 30.3636 51.78 30.4962 51.3899 30.7614C51.0035 31.0227 50.7062 31.3636 50.4978 31.7841C50.2895 32.2045 50.1853 32.6553 50.1853 33.1364V33.9091C50.1853 34.5682 50.299 35.1269 50.5262 35.5852C50.7573 36.0398 51.0774 36.3864 51.4865 36.625C51.8956 36.8598 52.3709 36.9773 52.9126 36.9773C53.2649 36.9773 53.5831 36.928 53.8672 36.8295C54.155 36.7273 54.4031 36.5758 54.6115 36.375C54.8198 36.1705 54.9808 35.9167 55.0944 35.6136L56.3899 35.9773C56.2535 36.4167 56.0244 36.803 55.7024 37.1364C55.3804 37.4659 54.9827 37.7235 54.5092 37.9091C54.0357 38.0909 53.5035 38.1818 52.9126 38.1818ZM61.1582 38.2045C60.6052 38.2045 60.1033 38.1004 59.6525 37.892C59.2018 37.6799 58.8438 37.375 58.5787 36.9773C58.3135 36.5758 58.1809 36.0909 58.1809 35.5227C58.1809 35.0227 58.2794 34.6174 58.4764 34.3068C58.6734 33.9924 58.9366 33.7462 59.2662 33.5682C59.5957 33.3902 59.9593 33.2576 60.3571 33.1705C60.7586 33.0795 61.162 33.0076 61.5673 32.9545C62.0976 32.8864 62.5275 32.8352 62.8571 32.8011C63.1904 32.7633 63.4328 32.7008 63.5843 32.6136C63.7396 32.5265 63.8173 32.375 63.8173 32.1591V32.1136C63.8173 31.553 63.6639 31.1174 63.3571 30.8068C63.054 30.4962 62.5938 30.3409 61.9764 30.3409C61.3362 30.3409 60.8343 30.4811 60.4707 30.7614C60.1071 31.0417 59.8514 31.3409 59.7037 31.6591L58.4309 31.2045C58.6582 30.6742 58.9612 30.2614 59.34 29.9659C59.7226 29.6667 60.1393 29.4583 60.59 29.3409C61.0446 29.2197 61.4915 29.1591 61.9309 29.1591C62.2112 29.1591 62.5332 29.1932 62.8968 29.2614C63.2643 29.3258 63.6184 29.4602 63.9593 29.6648C64.304 29.8693 64.59 30.178 64.8173 30.5909C65.0446 31.0038 65.1582 31.5568 65.1582 32.25V38H63.8173V36.8182H63.7491C63.6582 37.0076 63.5067 37.2102 63.2946 37.4261C63.0824 37.642 62.8003 37.8258 62.448 37.9773C62.0957 38.1288 61.6658 38.2045 61.1582 38.2045ZM61.3628 37C61.8931 37 62.34 36.8958 62.7037 36.6875C63.0711 36.4792 63.3476 36.2102 63.5332 35.8807C63.7226 35.5511 63.8173 35.2045 63.8173 34.8409V33.6136C63.7605 33.6818 63.6355 33.7443 63.4423 33.8011C63.2529 33.8542 63.0332 33.9015 62.7832 33.9432C62.537 33.9811 62.2965 34.0152 62.0616 34.0455C61.8306 34.072 61.6431 34.0947 61.4991 34.1136C61.1506 34.1591 60.8249 34.233 60.5218 34.3352C60.2226 34.4337 59.9802 34.5833 59.7946 34.7841C59.6128 34.9811 59.5218 35.25 59.5218 35.5909C59.5218 36.0568 59.6942 36.4091 60.0389 36.6477C60.3874 36.8826 60.8287 37 61.3628 37ZM68.9706 26.3636V38H67.6296V26.3636H68.9706ZM75.246 29.2727V30.4091H70.7233V29.2727H75.246ZM72.0414 27.1818H73.3823V35.5C73.3823 35.8788 73.4373 36.1629 73.5471 36.3523C73.6608 36.5379 73.8047 36.6629 73.9789 36.7273C74.157 36.7879 74.3445 36.8182 74.5414 36.8182C74.6892 36.8182 74.8104 36.8106 74.9051 36.7955C74.9998 36.7765 75.0755 36.7614 75.1323 36.75L75.4051 37.9545C75.3142 37.9886 75.1873 38.0227 75.0244 38.0568C74.8615 38.0947 74.6551 38.1136 74.4051 38.1136C74.0263 38.1136 73.6551 38.0322 73.2914 37.8693C72.9316 37.7064 72.6323 37.4583 72.3937 37.125C72.1589 36.7917 72.0414 36.3712 72.0414 35.8636V27.1818ZM78.8154 32.75V38H77.4745V26.3636H78.8154V30.6364H78.9291C79.1336 30.1856 79.4404 29.8277 79.8495 29.5625C80.2624 29.2936 80.8116 29.1591 81.4973 29.1591C82.092 29.1591 82.6128 29.2784 83.0598 29.517C83.5067 29.7519 83.8533 30.1136 84.0995 30.6023C84.3495 31.0871 84.4745 31.7045 84.4745 32.4545V38H83.1336V32.5455C83.1336 31.8523 82.9537 31.3163 82.5938 30.9375C82.2378 30.5549 81.7435 30.3636 81.1109 30.3636C80.6715 30.3636 80.2776 30.4564 79.9291 30.642C79.5844 30.8277 79.3116 31.0985 79.1109 31.4545C78.9139 31.8106 78.8154 32.2424 78.8154 32.75ZM95.0211 38.1818C94.2332 38.1818 93.5419 37.9943 92.9472 37.6193C92.3563 37.2443 91.8942 36.7197 91.5609 36.0455C91.2313 35.3712 91.0666 34.5833 91.0666 33.6818C91.0666 32.7727 91.2313 31.9792 91.5609 31.3011C91.8942 30.6231 92.3563 30.0966 92.9472 29.7216C93.5419 29.3466 94.2332 29.1591 95.0211 29.1591C95.809 29.1591 96.4984 29.3466 97.0893 29.7216C97.684 30.0966 98.1461 30.6231 98.4756 31.3011C98.809 31.9792 98.9756 32.7727 98.9756 33.6818C98.9756 34.5833 98.809 35.3712 98.4756 36.0455C98.1461 36.7197 97.684 37.2443 97.0893 37.6193C96.4984 37.9943 95.809 38.1818 95.0211 38.1818ZM95.0211 36.9773C95.6196 36.9773 96.112 36.8239 96.4984 36.517C96.8847 36.2102 97.1707 35.8068 97.3563 35.3068C97.5419 34.8068 97.6347 34.2652 97.6347 33.6818C97.6347 33.0985 97.5419 32.5549 97.3563 32.0511C97.1707 31.5473 96.8847 31.1402 96.4984 30.8295C96.112 30.5189 95.6196 30.3636 95.0211 30.3636C94.4226 30.3636 93.9302 30.5189 93.5438 30.8295C93.1575 31.1402 92.8715 31.5473 92.6859 32.0511C92.5003 32.5549 92.4075 33.0985 92.4075 33.6818C92.4075 34.2652 92.5003 34.8068 92.6859 35.3068C92.8715 35.8068 93.1575 36.2102 93.5438 36.517C93.9302 36.8239 94.4226 36.9773 95.0211 36.9773ZM104.933 29.2727V30.4091H100.228V29.2727H104.933ZM101.637 38V28.0682C101.637 27.5682 101.755 27.1515 101.99 26.8182C102.225 26.4848 102.529 26.2348 102.904 26.0682C103.279 25.9015 103.675 25.8182 104.092 25.8182C104.422 25.8182 104.69 25.8447 104.899 25.8977C105.107 25.9508 105.262 26 105.365 26.0455L104.978 27.2045C104.91 27.1818 104.815 27.1534 104.694 27.1193C104.577 27.0852 104.422 27.0682 104.228 27.0682C103.785 27.0682 103.465 27.1799 103.268 27.4034C103.075 27.6269 102.978 27.9545 102.978 28.3864V38H101.637ZM120.769 26.3636V38H119.406L113.065 28.8636H112.951V38H111.542V26.3636H112.906L119.269 35.5227H119.383V26.3636H120.769ZM125.999 38.2045C125.446 38.2045 124.944 38.1004 124.494 37.892C124.043 37.6799 123.685 37.375 123.42 36.9773C123.155 36.5758 123.022 36.0909 123.022 35.5227C123.022 35.0227 123.12 34.6174 123.317 34.3068C123.514 33.9924 123.778 33.7462 124.107 33.5682C124.437 33.3902 124.8 33.2576 125.198 33.1705C125.6 33.0795 126.003 33.0076 126.408 32.9545C126.939 32.8864 127.369 32.8352 127.698 32.8011C128.031 32.7633 128.274 32.7008 128.425 32.6136C128.581 32.5265 128.658 32.375 128.658 32.1591V32.1136C128.658 31.553 128.505 31.1174 128.198 30.8068C127.895 30.4962 127.435 30.3409 126.817 30.3409C126.177 30.3409 125.675 30.4811 125.312 30.7614C124.948 31.0417 124.692 31.3409 124.545 31.6591L123.272 31.2045C123.499 30.6742 123.802 30.2614 124.181 29.9659C124.564 29.6667 124.98 29.4583 125.431 29.3409C125.886 29.2197 126.333 29.1591 126.772 29.1591C127.052 29.1591 127.374 29.1932 127.738 29.2614C128.105 29.3258 128.459 29.4602 128.8 29.6648C129.145 29.8693 129.431 30.178 129.658 30.5909C129.886 31.0038 129.999 31.5568 129.999 32.25V38H128.658V36.8182H128.59C128.499 37.0076 128.348 37.2102 128.136 37.4261C127.923 37.642 127.641 37.8258 127.289 37.9773C126.937 38.1288 126.507 38.2045 125.999 38.2045ZM126.204 37C126.734 37 127.181 36.8958 127.545 36.6875C127.912 36.4792 128.189 36.2102 128.374 35.8807C128.564 35.5511 128.658 35.2045 128.658 34.8409V33.6136C128.601 33.6818 128.476 33.7443 128.283 33.8011C128.094 33.8542 127.874 33.9015 127.624 33.9432C127.378 33.9811 127.137 34.0152 126.903 34.0455C126.672 34.072 126.484 34.0947 126.34 34.1136C125.992 34.1591 125.666 34.233 125.363 34.3352C125.064 34.4337 124.821 34.5833 124.636 34.7841C124.454 34.9811 124.363 35.25 124.363 35.5909C124.363 36.0568 124.535 36.4091 124.88 36.6477C125.228 36.8826 125.67 37 126.204 37ZM136.266 29.2727V30.4091H131.743V29.2727H136.266ZM133.062 27.1818H134.402V35.5C134.402 35.8788 134.457 36.1629 134.567 36.3523C134.681 36.5379 134.825 36.6629 134.999 36.7273C135.177 36.7879 135.365 36.8182 135.562 36.8182C135.709 36.8182 135.83 36.8106 135.925 36.7955C136.02 36.7765 136.096 36.7614 136.152 36.75L136.425 37.9545C136.334 37.9886 136.207 38.0227 136.045 38.0568C135.882 38.0947 135.675 38.1136 135.425 38.1136C135.046 38.1136 134.675 38.0322 134.312 37.8693C133.952 37.7064 133.652 37.4583 133.414 37.125C133.179 36.7917 133.062 36.3712 133.062 35.8636V27.1818ZM138.307 38V29.2727H139.648V38H138.307ZM138.989 27.8182C138.728 27.8182 138.502 27.7292 138.313 27.5511C138.127 27.3731 138.034 27.1591 138.034 26.9091C138.034 26.6591 138.127 26.4451 138.313 26.267C138.502 26.089 138.728 26 138.989 26C139.25 26 139.474 26.089 139.659 26.267C139.849 26.4451 139.944 26.6591 139.944 26.9091C139.944 27.1591 139.849 27.3731 139.659 27.5511C139.474 27.7292 139.25 27.8182 138.989 27.8182ZM145.673 38.1818C144.886 38.1818 144.194 37.9943 143.6 37.6193C143.009 37.2443 142.547 36.7197 142.213 36.0455C141.884 35.3712 141.719 34.5833 141.719 33.6818C141.719 32.7727 141.884 31.9792 142.213 31.3011C142.547 30.6231 143.009 30.0966 143.6 29.7216C144.194 29.3466 144.886 29.1591 145.673 29.1591C146.461 29.1591 147.151 29.3466 147.742 29.7216C148.336 30.0966 148.798 30.6231 149.128 31.3011C149.461 31.9792 149.628 32.7727 149.628 33.6818C149.628 34.5833 149.461 35.3712 149.128 36.0455C148.798 36.7197 148.336 37.2443 147.742 37.6193C147.151 37.9943 146.461 38.1818 145.673 38.1818ZM145.673 36.9773C146.272 36.9773 146.764 36.8239 147.151 36.517C147.537 36.2102 147.823 35.8068 148.009 35.3068C148.194 34.8068 148.287 34.2652 148.287 33.6818C148.287 33.0985 148.194 32.5549 148.009 32.0511C147.823 31.5473 147.537 31.1402 147.151 30.8295C146.764 30.5189 146.272 30.3636 145.673 30.3636C145.075 30.3636 144.583 30.5189 144.196 30.8295C143.81 31.1402 143.524 31.5473 143.338 32.0511C143.153 32.5549 143.06 33.0985 143.06 33.6818C143.06 34.2652 143.153 34.8068 143.338 35.3068C143.524 35.8068 143.81 36.2102 144.196 36.517C144.583 36.8239 145.075 36.9773 145.673 36.9773ZM153.04 32.75V38H151.699V29.2727H152.994V30.6364H153.108C153.313 30.1932 153.623 29.8371 154.04 29.5682C154.456 29.2955 154.994 29.1591 155.653 29.1591C156.244 29.1591 156.761 29.2803 157.205 29.5227C157.648 29.7614 157.992 30.125 158.239 30.6136C158.485 31.0985 158.608 31.7121 158.608 32.4545V38H157.267V32.5455C157.267 31.8598 157.089 31.3258 156.733 30.9432C156.377 30.5568 155.888 30.3636 155.267 30.3636C154.839 30.3636 154.456 30.4564 154.119 30.642C153.786 30.8277 153.523 31.0985 153.33 31.4545C153.136 31.8106 153.04 32.2424 153.04 32.75ZM167.264 31.2273L166.06 31.5682C165.984 31.3674 165.872 31.1723 165.724 30.983C165.58 30.7898 165.383 30.6307 165.133 30.5057C164.883 30.3807 164.563 30.3182 164.173 30.3182C163.639 30.3182 163.194 30.4413 162.838 30.6875C162.486 30.9299 162.31 31.2386 162.31 31.6136C162.31 31.947 162.431 32.2102 162.673 32.4034C162.916 32.5966 163.294 32.7576 163.81 32.8864L165.105 33.2045C165.885 33.3939 166.467 33.6837 166.849 34.0739C167.232 34.4602 167.423 34.9583 167.423 35.5682C167.423 36.0682 167.279 36.5152 166.991 36.9091C166.707 37.303 166.31 37.6136 165.798 37.8409C165.287 38.0682 164.692 38.1818 164.014 38.1818C163.124 38.1818 162.387 37.9886 161.804 37.6023C161.221 37.2159 160.851 36.6515 160.696 35.9091L161.969 35.5909C162.09 36.0606 162.319 36.4129 162.656 36.6477C162.997 36.8826 163.442 37 163.991 37C164.616 37 165.113 36.8674 165.48 36.6023C165.851 36.3333 166.037 36.0114 166.037 35.6364C166.037 35.3333 165.931 35.0795 165.719 34.875C165.507 34.6667 165.181 34.5114 164.741 34.4091L163.287 34.0682C162.488 33.8788 161.9 33.5852 161.525 33.1875C161.154 32.786 160.969 32.2841 160.969 31.6818C160.969 31.1894 161.107 30.7538 161.383 30.375C161.664 29.9962 162.044 29.6989 162.525 29.483C163.01 29.267 163.56 29.1591 164.173 29.1591C165.037 29.1591 165.715 29.3485 166.207 29.7273C166.703 30.1061 167.056 30.6061 167.264 31.2273Z" fill="black" fill-opacity="0.87"/>
</svg>
